STARTFONT 2.1
COMMENT This font image translated from Metafont
COMMENT Input file was ``aplox''
COMMENT DPI was ``300'', usermag ``250'', blackness ``3''
COMMENT shrink was 4
FONT aplox.108
SIZE 10 108 108
FONTBOUNDINGBOX 10 13 0 -2
STARTPROPERTIES 3
FONT_ASCENT 11
FONT_DESCENT 4
COPYRIGHT "Public Domain"
ENDPROPERTIES
CHARS 154
STARTCHAR C032
ENCODING 32
SWIDTH 240 0
DWIDTH 10 0
BBX 1 11 4 -1
BITMAP
0000
0000
0000
0000
0000
0000
0000
0000
0000
0000
0000
ENDCHAR
STARTCHAR C033
ENCODING 33
SWIDTH 240 0
DWIDTH 10 0
BBX 1 11 4 -1
BITMAP
80
80
80
80
80
80
80
00
00
80
00
ENDCHAR
STARTCHAR C034
ENCODING 34
SWIDTH 240 0
DWIDTH 10 0
BBX 5 3 2 7
BITMAP
98
98
98
ENDCHAR
STARTCHAR C035
ENCODING 35
SWIDTH 240 0
DWIDTH 10 0
BBX 7 8 1 0
BITMAP
4c
4c
fe
6c
fe
6c
4c
48
ENDCHAR
STARTCHAR C036
ENCODING 36
SWIDTH 240 0
DWIDTH 10 0
BBX 6 8 1 0
BITMAP
20
78
b4
70
3c
f8
70
20
ENDCHAR
STARTCHAR C037
ENCODING 37
SWIDTH 240 0
DWIDTH 10 0
BBX 7 10 1 -1
BITMAP
46
e6
6c
18
10
30
60
4c
cc
80
ENDCHAR
STARTCHAR C038
ENCODING 38
SWIDTH 240 0
DWIDTH 10 0
BBX 7 8 1 -1
BITMAP
e0
90
90
e0
f4
8c
fe
00
ENDCHAR
STARTCHAR C039
ENCODING 39
SWIDTH 240 0
DWIDTH 10 0
BBX 2 5 3 4
BITMAP
c0
c0
c0
c0
00
ENDCHAR
STARTCHAR C040
ENCODING 40
SWIDTH 240 0
DWIDTH 10 0
BBX 3 10 3 -1
BITMAP
20
60
c0
c0
80
80
c0
40
60
20
ENDCHAR
STARTCHAR C041
ENCODING 41
SWIDTH 240 0
DWIDTH 10 0
BBX 3 10 2 -1
BITMAP
80
c0
60
60
20
20
60
40
c0
80
ENDCHAR
STARTCHAR C042
ENCODING 42
SWIDTH 240 0
DWIDTH 10 0
BBX 6 6 1 1
BITMAP
20
30
78
30
50
00
ENDCHAR
STARTCHAR C043
ENCODING 43
SWIDTH 240 0
DWIDTH 10 0
BBX 6 6 1 1
BITMAP
20
20
fc
30
20
20
ENDCHAR
STARTCHAR C044
ENCODING 44
SWIDTH 240 0
DWIDTH 10 0
BBX 4 3 1 -2
BITMAP
70
60
c0
ENDCHAR
STARTCHAR C045
ENCODING 45
SWIDTH 240 0
DWIDTH 10 0
BBX 7 1 1 4
BITMAP
fe
ENDCHAR
STARTCHAR C046
ENCODING 46
SWIDTH 240 0
DWIDTH 10 0
BBX 2 2 3 -1
BITMAP
c0
c0
ENDCHAR
STARTCHAR C047
ENCODING 47
SWIDTH 240 0
DWIDTH 10 0
BBX 8 10 0 -1
BITMAP
03
06
04
0c
18
30
20
40
c0
80
ENDCHAR
STARTCHAR C048
ENCODING 48
SWIDTH 240 0
DWIDTH 10 0
BBX 7 10 1 -1
BITMAP
38
4c
86
86
86
86
86
4c
78
00
ENDCHAR
STARTCHAR C049
ENCODING 49
SWIDTH 240 0
DWIDTH 10 0
BBX 6 10 1 -1
BITMAP
20
60
e0
20
20
20
20
20
fc
fc
ENDCHAR
STARTCHAR C050
ENCODING 50
SWIDTH 240 0
DWIDTH 10 0
BBX 7 10 1 -1
BITMAP
7c
c6
86
06
0c
18
70
c0
fe
fe
ENDCHAR
STARTCHAR C051
ENCODING 51
SWIDTH 240 0
DWIDTH 10 0
BBX 7 10 1 -1
BITMAP
fe
06
0c
18
38
0e
06
86
fc
78
ENDCHAR
STARTCHAR C052
ENCODING 52
SWIDTH 240 0
DWIDTH 10 0
BBX 7 10 1 -1
BITMAP
0c
1c
2c
4c
cc
8c
fe
fe
0c
08
ENDCHAR
STARTCHAR C053
ENCODING 53
SWIDTH 240 0
DWIDTH 10 0
BBX 7 10 1 -1
BITMAP
fe
80
80
b8
ec
06
06
06
fc
78
ENDCHAR
STARTCHAR C054
ENCODING 54
SWIDTH 240 0
DWIDTH 10 0
BBX 7 10 1 -1
BITMAP
3c
60
c0
80
b8
ec
c6
86
fc
78
ENDCHAR
STARTCHAR C055
ENCODING 55
SWIDTH 240 0
DWIDTH 10 0
BBX 7 10 1 -1
BITMAP
fe
06
0c
18
10
30
20
20
60
40
ENDCHAR
STARTCHAR C056
ENCODING 56
SWIDTH 240 0
DWIDTH 10 0
BBX 7 10 1 -1
BITMAP
7c
c6
86
86
7c
ec
86
86
fc
38
ENDCHAR
STARTCHAR C057
ENCODING 57
SWIDTH 240 0
DWIDTH 10 0
BBX 7 10 1 -1
BITMAP
7c
c6
86
8e
7e
06
06
0c
78
70
ENDCHAR
STARTCHAR C058
ENCODING 58
SWIDTH 240 0
DWIDTH 10 0
BBX 2 8 3 -1
BITMAP
c0
c0
00
00
00
c0
c0
c0
ENDCHAR
STARTCHAR C059
ENCODING 59
SWIDTH 240 0
DWIDTH 10 0
BBX 4 9 1 -2
BITMAP
30
30
00
00
00
30
30
e0
00
ENDCHAR
STARTCHAR C060
ENCODING 60
SWIDTH 240 0
DWIDTH 10 0
BBX 5 10 2 -1
BITMAP
08
30
60
c0
80
c0
60
30
18
08
ENDCHAR
STARTCHAR C061
ENCODING 61
SWIDTH 240 0
DWIDTH 10 0
BBX 7 5 1 1
BITMAP
fe
00
00
fe
00
ENDCHAR
STARTCHAR C062
ENCODING 62
SWIDTH 240 0
DWIDTH 10 0
BBX 6 10 1 -1
BITMAP
80
40
20
10
0c
18
30
60
c0
00
ENDCHAR
STARTCHAR C063
ENCODING 63
SWIDTH 240 0
DWIDTH 10 0
BBX 7 10 1 -1
BITMAP
7c
ce
86
06
0c
18
18
10
10
10
ENDCHAR
STARTCHAR C064
ENCODING 64
SWIDTH 240 0
DWIDTH 10 0
BBX 7 10 1 -1
BITMAP
7c
c6
86
be
be
ae
be
c2
fe
78
ENDCHAR
STARTCHAR C065
ENCODING 65
SWIDTH 240 0
DWIDTH 10 0
BBX 7 10 1 -1
BITMAP
38
4c
c6
86
86
fe
c6
86
86
82
ENDCHAR
STARTCHAR C066
ENCODING 66
SWIDTH 240 0
DWIDTH 10 0
BBX 8 10 0 -1
BITMAP
fe
43
43
43
7e
66
43
43
fe
fc
ENDCHAR
STARTCHAR C067
ENCODING 67
SWIDTH 240 0
DWIDTH 10 0
BBX 7 10 1 -1
BITMAP
7c
c6
80
80
80
80
80
82
fc
38
ENDCHAR
STARTCHAR C068
ENCODING 68
SWIDTH 240 0
DWIDTH 10 0
BBX 8 10 0 -1
BITMAP
fe
43
43
43
43
43
43
43
fe
fc
ENDCHAR
STARTCHAR C069
ENCODING 69
SWIDTH 240 0
DWIDTH 10 0
BBX 7 10 1 -1
BITMAP
fe
80
80
80
f0
c0
80
80
fe
fe
ENDCHAR
STARTCHAR C070
ENCODING 70
SWIDTH 240 0
DWIDTH 10 0
BBX 7 10 1 -1
BITMAP
fe
80
80
80
f0
c0
80
80
80
80
ENDCHAR
STARTCHAR C071
ENCODING 71
SWIDTH 240 0
DWIDTH 10 0
BBX 7 10 1 -1
BITMAP
7c
c6
80
80
80
9e
86
8e
fe
32
ENDCHAR
STARTCHAR C072
ENCODING 72
SWIDTH 240 0
DWIDTH 10 0
BBX 7 10 1 -1
BITMAP
86
86
86
86
fe
c6
86
86
86
82
ENDCHAR
STARTCHAR C073
ENCODING 73
SWIDTH 240 0
DWIDTH 10 0
BBX 6 10 1 -1
BITMAP
fc
20
20
20
20
20
20
20
fc
fc
ENDCHAR
STARTCHAR C074
ENCODING 74
SWIDTH 240 0
DWIDTH 10 0
BBX 7 10 1 -1
BITMAP
3e
0c
0c
0c
0c
0c
0c
88
f8
30
ENDCHAR
STARTCHAR C075
ENCODING 75
SWIDTH 240 0
DWIDTH 10 0
BBX 7 10 1 -1
BITMAP
86
8c
98
f0
e0
e0
b0
98
8c
82
ENDCHAR
STARTCHAR C076
ENCODING 76
SWIDTH 240 0
DWIDTH 10 0
BBX 7 10 1 -1
BITMAP
80
80
80
80
80
80
80
80
fe
fe
ENDCHAR
STARTCHAR C077
ENCODING 77
SWIDTH 240 0
DWIDTH 10 0
BBX 8 10 0 -1
BITMAP
83
c3
c7
ef
bb
9b
83
83
83
81
ENDCHAR
STARTCHAR C078
ENCODING 78
SWIDTH 240 0
DWIDTH 10 0
BBX 7 10 1 -1
BITMAP
86
c6
c6
e6
96
8e
8e
86
86
82
ENDCHAR
STARTCHAR C079
ENCODING 79
SWIDTH 240 0
DWIDTH 10 0
BBX 7 10 1 -1
BITMAP
7c
c6
86
86
86
86
86
86
fc
78
ENDCHAR
STARTCHAR C080
ENCODING 80
SWIDTH 240 0
DWIDTH 10 0
BBX 7 10 1 -1
BITMAP
fc
86
86
86
fc
c0
80
80
80
80
ENDCHAR
STARTCHAR C081
ENCODING 81
SWIDTH 240 0
DWIDTH 10 0
BBX 7 11 1 -2
BITMAP
7c
c6
86
86
86
86
86
96
fc
7c
00
ENDCHAR
STARTCHAR C082
ENCODING 82
SWIDTH 240 0
DWIDTH 10 0
BBX 7 10 1 -1
BITMAP
fc
86
86
86
fc
f0
90
98
8c
82
ENDCHAR
STARTCHAR C083
ENCODING 83
SWIDTH 240 0
DWIDTH 10 0
BBX 7 10 1 -1
BITMAP
7c
c6
80
c0
78
0c
06
86
fc
78
ENDCHAR
STARTCHAR C084
ENCODING 84
SWIDTH 240 0
DWIDTH 10 0
BBX 8 10 0 -1
BITMAP
ff
10
10
10
10
10
10
10
10
10
ENDCHAR
STARTCHAR C085
ENCODING 85
SWIDTH 240 0
DWIDTH 10 0
BBX 7 10 1 -1
BITMAP
86
86
86
86
86
86
86
c6
fc
78
ENDCHAR
STARTCHAR C086
ENCODING 86
SWIDTH 240 0
DWIDTH 10 0
BBX 8 10 0 -1
BITMAP
81
c3
c2
46
44
64
2c
28
18
10
ENDCHAR
STARTCHAR C087
ENCODING 87
SWIDTH 240 0
DWIDTH 10 0
BBX 8 10 0 -1
BITMAP
83
83
83
83
93
93
9b
bb
e6
40
ENDCHAR
STARTCHAR C088
ENCODING 88
SWIDTH 240 0
DWIDTH 10 0
BBX 8 10 0 -1
BITMAP
83
c3
46
3c
38
38
64
c2
83
81
ENDCHAR
STARTCHAR C089
ENCODING 89
SWIDTH 240 0
DWIDTH 10 0
BBX 8 10 0 -1
BITMAP
83
c3
46
7c
38
18
10
10
10
10
ENDCHAR
STARTCHAR C090
ENCODING 90
SWIDTH 240 0
DWIDTH 10 0
BBX 7 10 1 -1
BITMAP
fe
06
0c
18
30
60
c0
80
fe
fe
ENDCHAR
STARTCHAR C091
ENCODING 91
SWIDTH 240 0
DWIDTH 10 0
BBX 5 10 2 -1
BITMAP
f8
80
80
80
80
80
80
80
f8
f8
ENDCHAR
STARTCHAR C092
ENCODING 92
SWIDTH 240 0
DWIDTH 10 0
BBX 8 10 0 -1
BITMAP
80
c0
60
20
10
08
0c
06
03
01
ENDCHAR
STARTCHAR C093
ENCODING 93
SWIDTH 240 0
DWIDTH 10 0
BBX 5 10 2 -1
BITMAP
f8
18
18
18
18
18
18
18
f8
f8
ENDCHAR
STARTCHAR C094
ENCODING 94
SWIDTH 240 0
DWIDTH 10 0
BBX 8 8 0 0
BITMAP
10
28
2c
64
46
c2
83
01
ENDCHAR
STARTCHAR C095
ENCODING 95
SWIDTH 240 0
DWIDTH 10 0
BBX 9 2 0 -2
BITMAP
ff80
0000
ENDCHAR
STARTCHAR C096
ENCODING 96
SWIDTH 240 0
DWIDTH 10 0
BBX 4 4 2 5
BITMAP
e0
f0
30
00
ENDCHAR
STARTCHAR C097
ENCODING 97
SWIDTH 240 0
DWIDTH 10 0
BBX 7 7 1 -1
BITMAP
7c
0c
7e
86
8e
fe
00
ENDCHAR
STARTCHAR C098
ENCODING 98
SWIDTH 240 0
DWIDTH 10 0
BBX 7 10 1 -1
BITMAP
80
80
80
b8
e4
86
86
c6
fc
98
ENDCHAR
STARTCHAR C099
ENCODING 99
SWIDTH 240 0
DWIDTH 10 0
BBX 7 7 1 -1
BITMAP
7c
c6
80
80
c6
7c
00
ENDCHAR
STARTCHAR C100
ENCODING 100
SWIDTH 240 0
DWIDTH 10 0
BBX 7 10 1 -1
BITMAP
06
06
06
76
ce
86
86
86
fe
72
ENDCHAR
STARTCHAR C101
ENCODING 101
SWIDTH 240 0
DWIDTH 10 0
BBX 7 7 1 -1
BITMAP
7c
c6
fe
80
c0
78
00
ENDCHAR
STARTCHAR C102
ENCODING 102
SWIDTH 240 0
DWIDTH 10 0
BBX 7 10 1 -1
BITMAP
3c
66
40
40
fc
60
40
40
40
40
ENDCHAR
STARTCHAR C103
ENCODING 103
SWIDTH 240 0
DWIDTH 10 0
BBX 7 9 1 -3
BITMAP
f4
8c
88
78
80
f8
cc
fc
30
ENDCHAR
STARTCHAR C104
ENCODING 104
SWIDTH 240 0
DWIDTH 10 0
BBX 7 10 1 -1
BITMAP
80
80
80
b8
ec
c6
86
86
86
82
ENDCHAR
STARTCHAR C105
ENCODING 105
SWIDTH 240 0
DWIDTH 10 0
BBX 6 9 1 -1
BITMAP
20
00
60
20
20
20
20
fc
fc
ENDCHAR
STARTCHAR C106
ENCODING 106
SWIDTH 240 0
DWIDTH 10 0
BBX 6 11 1 -3
BITMAP
0c
00
1c
0c
0c
0c
0c
8c
8c
f8
70
ENDCHAR
STARTCHAR C107
ENCODING 107
SWIDTH 240 0
DWIDTH 10 0
BBX 7 10 1 -1
BITMAP
80
80
80
88
98
f0
f0
98
8c
82
ENDCHAR
STARTCHAR C108
ENCODING 108
SWIDTH 240 0
DWIDTH 10 0
BBX 6 10 1 -1
BITMAP
60
20
20
20
20
20
20
20
fc
fc
ENDCHAR
STARTCHAR C109
ENCODING 109
SWIDTH 240 0
DWIDTH 10 0
BBX 8 7 0 -1
BITMAP
ee
9b
93
93
93
83
00
ENDCHAR
STARTCHAR C110
ENCODING 110
SWIDTH 240 0
DWIDTH 10 0
BBX 7 7 1 -1
BITMAP
fc
e6
c6
86
86
86
00
ENDCHAR
STARTCHAR C111
ENCODING 111
SWIDTH 240 0
DWIDTH 10 0
BBX 7 7 1 -1
BITMAP
7c
c6
86
86
86
7c
00
ENDCHAR
STARTCHAR C112
ENCODING 112
SWIDTH 240 0
DWIDTH 10 0
BBX 7 9 1 -3
BITMAP
fc
e6
86
c6
fc
80
80
80
80
ENDCHAR
STARTCHAR C113
ENCODING 113
SWIDTH 240 0
DWIDTH 10 0
BBX 7 9 1 -3
BITMAP
7e
ce
86
8e
7e
06
06
06
02
ENDCHAR
STARTCHAR C114
ENCODING 114
SWIDTH 240 0
DWIDTH 10 0
BBX 7 7 1 -1
BITMAP
fc
e6
40
40
40
40
00
ENDCHAR
STARTCHAR C115
ENCODING 115
SWIDTH 240 0
DWIDTH 10 0
BBX 7 7 1 -1
BITMAP
7c
c6
70
38
84
7c
00
ENDCHAR
STARTCHAR C116
ENCODING 116
SWIDTH 240 0
DWIDTH 10 0
BBX 7 9 1 -1
BITMAP
40
40
fc
60
40
40
42
7c
18
ENDCHAR
STARTCHAR C117
ENCODING 117
SWIDTH 240 0
DWIDTH 10 0
BBX 7 7 1 -1
BITMAP
8c
88
88
8c
cc
7c
00
ENDCHAR
STARTCHAR C118
ENCODING 118
SWIDTH 240 0
DWIDTH 10 0
BBX 6 6 1 0
BITMAP
8c
8c
cc
d8
50
30
ENDCHAR
STARTCHAR C119
ENCODING 119
SWIDTH 240 0
DWIDTH 10 0
BBX 8 7 0 -1
BITMAP
83
83
93
9b
bb
e6
00
ENDCHAR
STARTCHAR C120
ENCODING 120
SWIDTH 240 0
DWIDTH 10 0
BBX 6 7 1 -1
BITMAP
84
48
38
30
78
84
00
ENDCHAR
STARTCHAR C121
ENCODING 121
SWIDTH 240 0
DWIDTH 10 0
BBX 7 9 1 -3
BITMAP
86
86
86
ce
7e
06
86
fc
38
ENDCHAR
STARTCHAR C122
ENCODING 122
SWIDTH 240 0
DWIDTH 10 0
BBX 7 7 1 -1
BITMAP
fe
0c
18
30
60
fe
00
ENDCHAR
STARTCHAR C123
ENCODING 123
SWIDTH 240 0
DWIDTH 10 0
BBX 6 10 1 -1
BITMAP
3c
60
60
20
e0
60
60
60
7c
18
ENDCHAR
STARTCHAR C124
ENCODING 124
SWIDTH 240 0
DWIDTH 10 0
BBX 1 12 3 -2
BITMAP
80
80
80
80
80
00
80
80
80
80
80
80
ENDCHAR
STARTCHAR C125
ENCODING 125
SWIDTH 240 0
DWIDTH 10 0
BBX 6 10 1 -1
BITMAP
f0
30
10
30
1c
30
30
10
f0
60
ENDCHAR
STARTCHAR C126
ENCODING 126
SWIDTH 240 0
DWIDTH 10 0
BBX 6 3 1 2
BITMAP
64
b8
10
ENDCHAR
STARTCHAR C128
ENCODING 128
SWIDTH 240 0
DWIDTH 10 0
BBX 8 8 0 0
BITMAP
03
03
03
ff
03
03
03
01
ENDCHAR
STARTCHAR C129
ENCODING 129
SWIDTH 240 0
DWIDTH 10 0
BBX 8 8 0 0
BITMAP
80
80
80
ff
80
80
80
80
ENDCHAR
STARTCHAR C130
ENCODING 130
SWIDTH 240 0
DWIDTH 10 0
BBX 8 7 0 1
BITMAP
7f
c0
80
80
80
ff
3f
ENDCHAR
STARTCHAR C131
ENCODING 131
SWIDTH 240 0
DWIDTH 10 0
BBX 8 7 0 1
BITMAP
fe
03
03
03
03
fe
f8
ENDCHAR
STARTCHAR C132
ENCODING 132
SWIDTH 240 0
DWIDTH 10 0
BBX 8 10 0 -1
BITMAP
ff
10
10
10
10
10
10
10
ff
ff
ENDCHAR
STARTCHAR C133
ENCODING 133
SWIDTH 240 0
DWIDTH 10 0
BBX 8 8 0 1
BITMAP
18
0c
06
fe
06
0c
18
00
ENDCHAR
STARTCHAR C134
ENCODING 134
SWIDTH 240 0
DWIDTH 10 0
BBX 9 11 0 -1
BITMAP
0180
0300
0600
ff00
1c00
1800
ff00
7000
6000
c000
0000
ENDCHAR
STARTCHAR C137
ENCODING 137
SWIDTH 240 0
DWIDTH 10 0
BBX 8 8 0 1
BITMAP
7e
d7
9b
ff
bb
e7
fe
3c
ENDCHAR
STARTCHAR C139
ENCODING 139
SWIDTH 240 0
DWIDTH 10 0
BBX 8 10 0 -1
BITMAP
10
10
10
10
10
91
d6
7c
38
00
ENDCHAR
STARTCHAR C140
ENCODING 140
SWIDTH 240 0
DWIDTH 10 0
BBX 8 10 0 -1
BITMAP
18
7c
56
93
10
10
10
10
10
00
ENDCHAR
STARTCHAR C141
ENCODING 141
SWIDTH 240 0
DWIDTH 10 0
BBX 6 12 1 -2
BITMAP
fc
80
80
80
80
80
80
80
80
80
80
80
ENDCHAR
STARTCHAR C143
ENCODING 143
SWIDTH 240 0
DWIDTH 10 0
BBX 6 12 1 -2
BITMAP
80
80
80
80
80
80
80
80
80
80
fc
fc
ENDCHAR
STARTCHAR C144
ENCODING 144
SWIDTH 240 0
DWIDTH 10 0
BBX 8 8 0 1
BITMAP
10
60
40
ff
c0
60
30
00
ENDCHAR
STARTCHAR C145
ENCODING 145
SWIDTH 240 0
DWIDTH 10 0
BBX 8 9 0 0
BITMAP
10
28
2c
64
46
c2
83
ff
ff
ENDCHAR
STARTCHAR C146
ENCODING 146
SWIDTH 240 0
DWIDTH 10 0
BBX 6 6 1 2
BITMAP
8c
78
70
70
c8
00
ENDCHAR
STARTCHAR C147
ENCODING 147
SWIDTH 240 0
DWIDTH 10 0
BBX 8 13 0 -2
BITMAP
10
10
18
38
3c
7c
56
d2
93
9b
ff
10
10
ENDCHAR
STARTCHAR C149
ENCODING 149
SWIDTH 240 0
DWIDTH 10 0
BBX 8 13 0 -2
BITMAP
ff
83
83
83
83
83
83
83
83
83
83
83
ff
ENDCHAR
STARTCHAR C151
ENCODING 151
SWIDTH 240 0
DWIDTH 10 0
BBX 8 13 0 -2
BITMAP
ff
9b
93
93
83
83
83
83
83
83
83
83
ff
ENDCHAR
STARTCHAR C152
ENCODING 152
SWIDTH 240 0
DWIDTH 10 0
BBX 8 13 0 -2
BITMAP
ff
83
93
93
83
ff
ff
93
93
93
83
83
ff
ENDCHAR
STARTCHAR C154
ENCODING 154
SWIDTH 240 0
DWIDTH 10 0
BBX 7 2 1 8
BITMAP
ce
ce
ENDCHAR
STARTCHAR C157
ENCODING 157
SWIDTH 240 0
DWIDTH 10 0
BBX 8 13 0 -2
BITMAP
10
10
ff
9b
93
d2
56
74
3c
38
18
10
10
ENDCHAR
STARTCHAR C158
ENCODING 158
SWIDTH 240 0
DWIDTH 10 0
BBX 7 8 1 -1
BITMAP
fe
00
00
30
30
60
c0
00
ENDCHAR
STARTCHAR C161
ENCODING 161
SWIDTH 240 0
DWIDTH 10 0
BBX 8 13 0 -2
BITMAP
ff
83
83
ff
c3
c7
e7
ab
9b
93
83
83
ff
ENDCHAR
STARTCHAR C162
ENCODING 162
SWIDTH 240 0
DWIDTH 10 0
BBX 8 13 0 -2
BITMAP
ff
83
83
83
b3
ff
ff
b3
83
83
83
83
ff
ENDCHAR
STARTCHAR C163
ENCODING 163
SWIDTH 240 0
DWIDTH 10 0
BBX 8 13 0 -2
BITMAP
ff
83
83
83
8b
ff
ff
8b
83
83
83
83
ff
ENDCHAR
STARTCHAR C166
ENCODING 166
SWIDTH 240 0
DWIDTH 10 0
BBX 8 10 0 -1
BITMAP
7e
c3
bb
e7
c3
c7
ff
9b
83
81
ENDCHAR
STARTCHAR C167
ENCODING 167
SWIDTH 240 0
DWIDTH 10 0
BBX 8 10 0 -1
BITMAP
80
c0
40
20
7f
38
0c
06
02
01
ENDCHAR
STARTCHAR C168
ENCODING 168
SWIDTH 240 0
DWIDTH 10 0
BBX 8 8 0 1
BITMAP
18
2c
46
83
c2
64
38
00
ENDCHAR
STARTCHAR C174
ENCODING 174
SWIDTH 240 0
DWIDTH 10 0
BBX 8 8 0 1
BITMAP
10
20
7f
80
ff
60
30
00
ENDCHAR
STARTCHAR C175
ENCODING 175
SWIDTH 240 0
DWIDTH 10 0
BBX 8 8 0 1
BITMAP
10
0c
fe
03
fe
0c
18
00
ENDCHAR
STARTCHAR C224
ENCODING 224
SWIDTH 240 0
DWIDTH 10 0
BBX 8 7 0 1
BITMAP
71
ca
8c
84
8c
fe
23
ENDCHAR
STARTCHAR C226
ENCODING 226
SWIDTH 240 0
DWIDTH 10 0
BBX 4 8 2 0
BITMAP
c0
60
60
40
c0
c0
60
30
ENDCHAR
STARTCHAR C227
ENCODING 227
SWIDTH 240 0
DWIDTH 10 0
BBX 6 10 1 1
BITMAP
dc
c8
00
00
70
c8
8c
8c
f8
30
ENDCHAR
STARTCHAR C228
ENCODING 228
SWIDTH 240 0
DWIDTH 10 0
BBX 8 11 0 0
BITMAP
6c
64
00
7e
c3
83
83
83
83
fe
3c
ENDCHAR
STARTCHAR C229
ENCODING 229
SWIDTH 240 0
DWIDTH 10 0
BBX 8 7 0 2
BITMAP
81
c3
e6
df
6e
2c
18
ENDCHAR
STARTCHAR C230
ENCODING 230
SWIDTH 240 0
DWIDTH 10 0
BBX 8 9 0 0
BITMAP
10
10
10
10
10
10
10
ff
ff
ENDCHAR
STARTCHAR C231
ENCODING 231
SWIDTH 240 0
DWIDTH 10 0
BBX 8 9 0 0
BITMAP
ff
10
10
10
10
10
10
10
10
ENDCHAR
STARTCHAR C232
ENCODING 232
SWIDTH 240 0
DWIDTH 10 0
BBX 8 13 0 -2
BITMAP
10
10
7c
de
93
93
93
93
fe
7c
10
10
10
ENDCHAR
STARTCHAR C233
ENCODING 233
SWIDTH 240 0
DWIDTH 10 0
BBX 8 8 0 1
BITMAP
7e
c3
83
ff
83
83
fe
3c
ENDCHAR
STARTCHAR C234
ENCODING 234
SWIDTH 240 0
DWIDTH 10 0
BBX 8 8 0 1
BITMAP
18
28
f5
df
4e
c2
83
00
ENDCHAR
STARTCHAR C235
ENCODING 235
SWIDTH 240 0
DWIDTH 10 0
BBX 8 10 0 -1
BITMAP
03
06
04
08
7f
38
20
40
80
00
ENDCHAR
STARTCHAR C236
ENCODING 236
SWIDTH 240 0
DWIDTH 10 0
BBX 8 9 0 0
BITMAP
ff
83
83
42
44
24
28
18
00
ENDCHAR
STARTCHAR C237
ENCODING 237
SWIDTH 240 0
DWIDTH 10 0
BBX 9 10 0 0
BITMAP
c000
7e00
e200
8300
9300
8b00
8700
ff00
3f00
0080
ENDCHAR
STARTCHAR C238
ENCODING 238
SWIDTH 240 0
DWIDTH 10 0
BBX 7 8 0 0
BITMAP
7c
c0
80
70
c0
80
e4
38
ENDCHAR
STARTCHAR C239
ENCODING 239
SWIDTH 240 0
DWIDTH 10 0
BBX 7 9 0 0
BITMAP
7c
c6
86
86
86
86
86
86
86
ENDCHAR
STARTCHAR C240
ENCODING 240
SWIDTH 240 0
DWIDTH 10 0
BBX 8 9 0 -1
BITMAP
ff
00
00
ff
ff
00
00
ff
ff
ENDCHAR
STARTCHAR C242
ENCODING 242
SWIDTH 240 0
DWIDTH 10 0
BBX 6 12 1 -2
BITMAP
80
60
30
18
0c
18
30
60
c0
00
fc
fc
ENDCHAR
STARTCHAR C243
ENCODING 243
SWIDTH 240 0
DWIDTH 10 0
BBX 6 12 1 -2
BITMAP
0c
18
30
60
80
c0
20
10
18
00
fc
fc
ENDCHAR
STARTCHAR C244
ENCODING 244
SWIDTH 240 0
DWIDTH 10 0
BBX 8 9 0 0
BITMAP
ff
10
38
7c
54
3c
18
10
10
ENDCHAR
STARTCHAR C245
ENCODING 245
SWIDTH 240 0
DWIDTH 10 0
BBX 8 9 0 0
BITMAP
10
10
38
7c
54
3c
18
ff
ff
ENDCHAR
STARTCHAR C246
ENCODING 246
SWIDTH 240 0
DWIDTH 10 0
BBX 7 8 1 1
BITMAP
30
00
00
fe
00
00
30
30
ENDCHAR
STARTCHAR C247
ENCODING 247
SWIDTH 240 0
DWIDTH 10 0
BBX 8 7 0 1
BITMAP
80
83
93
93
db
fe
00
ENDCHAR
STARTCHAR C248
ENCODING 248
SWIDTH 240 0
DWIDTH 10 0
BBX 6 6 1 1
BITMAP
78
8c
8c
8c
78
00
ENDCHAR
STARTCHAR C249
ENCODING 249
SWIDTH 240 0
DWIDTH 10 0
BBX 8 8 0 1
BITMAP
7e
c3
83
83
83
83
fe
3c
ENDCHAR
STARTCHAR C250
ENCODING 250
SWIDTH 240 0
DWIDTH 10 0
BBX 8 8 0 0
BITMAP
81
83
46
44
24
28
18
00
ENDCHAR
STARTCHAR C251
ENCODING 251
SWIDTH 240 0
DWIDTH 10 0
BBX 6 10 2 -2
BITMAP
78
cc
8c
8c
f8
e0
80
80
80
80
ENDCHAR
STARTCHAR C252
ENCODING 252
SWIDTH 240 0
DWIDTH 10 0
BBX 7 9 0 0
BITMAP
86
86
86
86
86
86
86
fc
38
ENDCHAR
STARTCHAR C253
ENCODING 253
SWIDTH 240 0
DWIDTH 10 0
BBX 8 1 0 9
BITMAP
ff
ENDCHAR
STARTCHAR C254
ENCODING 254
SWIDTH 240 0
DWIDTH 10 0
BBX 1 12 3 -2
BITMAP
80
80
80
80
80
80
80
80
80
80
80
80
ENDCHAR
ENDFONT
